<svg width="48" height="48" viewBox="0 0 48 48" fill="none" xmlns="http://www.w3.org/2000/svg">
<circle cx="24" cy="24" r="24" fill="#BA2396" fill-opacity="0.1"/>
<path d="M27 34.75H21C15.57 34.75 13.25 32.43 13.25 27V21C13.25 15.57 15.57 13.25 21 13.25H23C23.41 13.25 23.75 13.59 23.75 14C23.75 14.41 23.41 14.75 23 14.75H21C16.39 14.75 14.75 16.39 14.75 21V27C14.75 31.61 16.39 33.25 21 33.25H27C31.61 33.25 33.25 31.61 33.25 27V25C33.25 24.59 33.59 24.25 34 24.25C34.41 24.25 34.75 24.59 34.75 25V27C34.75 32.43 32.43 34.75 27 34.75Z" fill="#3BC1F8"/>
<path d="M20.5 29.69C19.89 29.69 19.33 29.47 18.92 29.07C18.43 28.58 18.22 27.87 18.33 27.12L18.76 24.11C18.84 23.53 19.22 22.78 19.63 22.37L27.51 14.49C29.5 12.5 31.52 12.5 33.51 14.49C34.6 15.58 35.09 16.69 34.99 17.8C34.9 18.7 34.42 19.58 33.51 20.48L25.63 28.36C25.22 28.77 24.47 29.15 23.89 29.23L20.88 29.66C20.75 29.69 20.62 29.69 20.5 29.69ZM28.57 15.55L20.69 23.43C20.5 23.62 20.28 24.06 20.24 24.32L19.81 27.33C19.77 27.62 19.83 27.86 19.98 28.01C20.13 28.16 20.37 28.22 20.66 28.18L23.67 27.75C23.93 27.71 24.38 27.49 24.56 27.3L32.44 19.42C33.09 18.77 33.43 18.19 33.48 17.65C33.54 17 33.2 16.31 32.44 15.54C30.84 13.94 29.74 14.39 28.57 15.55Z" fill="#3BC1F8"/>
<path d="M31.85 21.83C31.78 21.83 31.71 21.82 31.65 21.8C29.02 21.06 26.93 18.97 26.19 16.34C26.08 15.94 26.31 15.53 26.71 15.41C27.11 15.3 27.52 15.53 27.63 15.93C28.23 18.06 29.92 19.75 32.05 20.35C32.45 20.46 32.68 20.88 32.57 21.28C32.48 21.62 32.18 21.83 31.85 21.83Z" fill="#3BC1F8"/>
</svg>
