<svg width="56" height="56" viewBox="0 0 56 56" fill="none" xmlns="http://www.w3.org/2000/svg">
<path d="M21 41.4167C20.0433 41.4167 19.25 40.6233 19.25 39.6667V29.89L17.57 31.57C16.8933 32.2467 15.7733 32.2467 15.0967 31.57C14.42 30.8933 14.42 29.7733 15.0967 29.0967L19.7633 24.43C20.2533 23.94 21.0233 23.7767 21.6767 24.0567C22.33 24.3133 22.75 24.9667 22.75 25.6667V39.6667C22.75 40.6233 21.9567 41.4167 21 41.4167Z" fill="white"/>
<path d="M25.6667 32.0833C25.2233 32.0833 24.78 31.92 24.43 31.57L19.7633 26.9033C19.0867 26.2267 19.0867 25.1067 19.7633 24.43C20.44 23.7533 21.56 23.7533 22.2367 24.43L26.9033 29.0967C27.58 29.7733 27.58 30.8933 26.9033 31.57C26.5533 31.92 26.11 32.0833 25.6667 32.0833Z" fill="white"/>
<path d="M35 53.0834H21C8.33001 53.0834 2.91667 47.67 2.91667 35V21C2.91667 8.33002 8.33001 2.91669 21 2.91669H32.6667C33.6233 2.91669 34.4167 3.71002 34.4167 4.66669C34.4167 5.62335 33.6233 6.41669 32.6667 6.41669H21C10.2433 6.41669 6.41667 10.2434 6.41667 21V35C6.41667 45.7567 10.2433 49.5834 21 49.5834H35C45.7567 49.5834 49.5833 45.7567 49.5833 35V23.3334C49.5833 22.3767 50.3767 21.5834 51.3333 21.5834C52.29 21.5834 53.0833 22.3767 53.0833 23.3334V35C53.0833 47.67 47.67 53.0834 35 53.0834Z" fill="white"/>
<path d="M51.3333 25.0833H42C34.02 25.0833 30.9167 21.98 30.9167 14V4.66666C30.9167 3.96666 31.3367 3.31333 31.99 3.05666C32.6433 2.77666 33.39 2.93999 33.9033 3.42999L52.57 22.0967C53.06 22.5867 53.2233 23.3567 52.9433 24.01C52.6633 24.6633 52.0333 25.0833 51.3333 25.0833ZM34.4167 8.88999V14C34.4167 20.02 35.98 21.5833 42 21.5833H47.11L34.4167 8.88999Z" fill="white"/>
</svg>
