<svg width="48" height="48" viewBox="0 0 48 48" fill="none" xmlns="http://www.w3.org/2000/svg">
<path d="M24 33.65C23.69 33.65 23.39 33.61 23.14 33.52C19.32 32.21 13.25 27.56 13.25 20.69C13.25 17.19 16.08 14.35 19.56 14.35C21.25 14.35 22.83 15.01 24 16.19C25.17 15.01 26.75 14.35 28.44 14.35C31.92 14.35 34.75 17.2 34.75 20.69C34.75 27.57 28.68 32.21 24.86 33.52C24.61 33.61 24.31 33.65 24 33.65ZM19.56 15.85C16.91 15.85 14.75 18.02 14.75 20.69C14.75 27.52 21.32 31.32 23.63 32.11C23.81 32.17 24.2 32.17 24.38 32.11C26.68 31.32 33.26 27.53 33.26 20.69C33.26 18.02 31.1 15.85 28.45 15.85C26.93 15.85 25.52 16.56 24.61 17.79C24.33 18.17 23.69 18.17 23.41 17.79C22.48 16.55 21.08 15.85 19.56 15.85Z" fill="#BA2396"/>
<path d="M19.56 15.85C16.91 15.85 14.75 18.02 14.75 20.69C14.75 27.52 21.32 31.32 23.63 32.11C23.81 32.17 24.2 32.17 24.38 32.11C26.68 31.32 33.26 27.53 33.26 20.69C33.26 18.02 31.1 15.85 28.45 15.85C26.93 15.85 25.52 16.56 24.61 17.79C24.33 18.17 23.69 18.17 23.41 17.79C22.48 16.55 21.08 15.85 19.56 15.85Z" fill="#BA2396"/>
<circle cx="24" cy="24" r="24" fill="#BA2396" fill-opacity="0.1"/>
</svg>
