<svg width="16" height="24" viewBox="0 0 16 24" fill="none" xmlns="http://www.w3.org/2000/svg">
<path d="M3.92348 0.0871048C3.25978 0.204781 2.71376 0.383652 2.15362 0.666077C1.75352 0.863773 1.60289 0.972038 1.28751 1.28741C1.0804 1.49923 0.830926 1.80049 0.736784 1.96523C0.515551 2.35122 0.256661 3.13259 0.134277 3.81041C-0.00693596 4.56825 -0.0445927 5.98038 0.0589633 6.75705C0.270782 8.36217 0.765027 9.35537 1.40048 9.44009L1.62172 9.46834L1.32988 10.0473C0.802684 11.097 0.642642 11.6242 0.440238 12.9422C-0.0587139 16.2513 -0.0304714 18.2753 0.534379 19.8616C0.863876 20.7795 1.34871 21.4997 2.13008 22.2481C3.10916 23.1848 4.25298 23.7873 5.37327 23.9615C5.86751 24.0415 6.94544 23.9897 7.39261 23.872C8.5129 23.5708 9.52963 22.9542 10.4663 22.008C11.7278 20.7277 12.4527 19.2826 12.7304 17.461C12.8199 16.8726 12.8293 15.8323 12.754 15.3428C12.6363 14.6132 12.2597 13.4788 12.0103 13.1022C11.9255 12.9751 11.902 13.0222 12.3303 12.462C12.4763 12.2738 12.7493 11.8972 12.9329 11.6242C13.187 11.257 13.3094 11.1158 13.4224 11.0735C13.6389 10.9934 13.6295 10.9887 13.7613 11.2476C13.8602 11.4453 13.9025 11.483 14.0108 11.483C14.2085 11.483 15.2064 11.1346 15.2629 11.0452C15.3005 10.984 15.277 10.8946 15.164 10.6639L15.0134 10.3627L15.1781 10.1791C15.4088 9.92963 15.4653 9.71311 15.39 9.35066C15.3146 8.9788 15.1923 8.74815 14.924 8.46102C14.6509 8.16918 14.3921 8.03267 14.1049 8.02797C13.8931 8.02326 13.8837 8.01385 13.7848 7.81615C13.7331 7.70318 13.6907 7.60433 13.7001 7.59962C13.7095 7.59021 14.1614 7.48665 14.7027 7.36427C15.9313 7.09596 15.9219 7.10067 15.8889 6.90297C15.8701 6.78059 14.9946 4.30466 14.5568 3.1373C14.4015 2.73249 14.2838 2.68542 14.0296 2.92548C13.9355 3.01492 13.7189 3.21261 13.5495 3.36795C13.38 3.52799 13.0647 3.82454 12.8434 4.02694C12.6222 4.23405 12.2833 4.54943 12.0903 4.7283C11.8973 4.90717 11.4548 5.31668 11.1112 5.64147C10.7629 5.96626 10.4193 6.2581 10.344 6.29105C10.1133 6.38519 9.75557 6.76176 9.6426 7.02065C9.46373 7.43958 9.59553 7.99972 9.92973 8.23508C10.2122 8.43748 10.7064 8.41866 11.2195 8.1833C11.323 8.13623 11.5819 8.05621 11.7984 8.00443L12.1891 7.915L12.2974 8.15977C12.3586 8.29156 12.4951 8.5834 12.6034 8.81405C12.8105 9.25652 12.8105 9.29888 12.5987 9.48717C12.4904 9.58601 11.2006 10.2121 10.5275 10.4945L10.1651 10.6498L9.79793 10.3062C9.59553 10.1179 9.20484 9.79313 8.93183 9.59072L8.42817 9.21415L8.4517 8.63989C8.47524 8.15035 8.46583 8.05621 8.39993 7.99031C8.35286 7.94324 8.34344 7.90088 8.37168 7.88205C8.39522 7.86793 8.41876 7.70318 8.41876 7.5196C8.41876 7.24659 8.44229 7.14774 8.53643 6.97828C8.63057 6.82295 8.68706 6.77588 8.77649 6.77588C8.98831 6.77588 9.21425 6.63467 9.39312 6.38519C9.72733 5.93331 9.63789 5.62264 8.79532 4.32819C7.96217 3.04316 7.69857 2.38416 7.94805 2.17705C8.15516 2.00289 8.30108 1.68752 8.30108 1.40038C8.30108 1.17915 8.27284 1.09913 8.15987 0.929674C7.8539 0.496622 7.15726 0.185953 6.18289 0.0447407C5.65569 -0.0305729 4.46009 -0.00703812 3.92348 0.0871048ZM7.8539 3.56094C7.96687 3.76334 8.15516 4.07401 8.27754 4.25759C8.7153 4.91658 9.08716 5.55674 9.14835 5.76386C9.21425 5.97097 9.20955 5.97568 9.05892 6.17337C8.93653 6.33812 8.87064 6.38049 8.7153 6.39931C8.447 6.43697 8.31991 6.53582 8.16457 6.82766C8.06102 7.01594 8.02807 7.14303 8.02336 7.34544L8.01865 7.61374L7.68445 7.67023C7.3173 7.72671 7.16667 7.83027 7.21374 7.99031C7.2561 8.11269 7.40673 8.17389 7.7833 8.21154L8.10338 8.2492L8.07514 8.63047C8.02336 9.28476 7.90098 9.52482 7.54324 9.67545C6.9219 9.93434 5.21323 9.7743 3.79639 9.31771C3.27391 9.15296 2.61962 8.82817 2.61962 8.73403C2.61491 8.6446 3.09033 7.86793 3.23154 7.73142C3.3351 7.63257 3.48102 7.55255 3.65518 7.50548C4.39419 7.29837 4.68133 7.13362 4.84607 6.80883C4.94022 6.62996 4.94492 6.56406 4.92139 5.99921C4.90727 5.66501 4.87432 5.26961 4.84607 5.1284C4.77547 4.74242 4.69545 3.76334 4.72369 3.66449C4.74252 3.61271 4.83195 3.55623 4.94963 3.52328C5.49095 3.38678 6.47943 3.02433 6.93602 2.80309L7.4538 2.55833L7.55265 2.8737C7.60914 3.04786 7.74564 3.35853 7.8539 3.56094ZM14.3167 3.62213C14.3591 3.73981 14.6274 4.48353 14.9098 5.27432C15.197 6.06511 15.4323 6.73352 15.4323 6.75705C15.4323 6.81824 11.4172 7.70318 11.3983 7.64198C11.3889 7.61374 11.2665 7.35015 11.1253 7.0536C10.9841 6.76176 10.8664 6.49346 10.8664 6.46521C10.8664 6.43226 11.276 6.03216 11.7749 5.57087C12.2692 5.10957 12.9564 4.47882 13.2906 4.16344C14.2885 3.22673 14.1944 3.27851 14.3167 3.62213ZM10.777 7.23247C10.9182 7.53372 11.0359 7.79732 11.0453 7.81615C11.0736 7.88205 10.5322 8.01385 10.3534 7.9809C10.2545 7.96677 10.1416 7.90558 10.0804 7.83968C9.93915 7.67493 9.89678 7.34544 9.98622 7.16657C10.0615 7.02536 10.4099 6.68174 10.4805 6.68174C10.504 6.68174 10.6358 6.92651 10.777 7.23247ZM2.95853 9.42127C4.00821 9.91551 6.13582 10.3015 7.08665 10.1697C7.65621 10.0944 7.81154 10.0332 8.03748 9.80725L8.23989 9.60013L8.39051 9.70369C8.63057 9.87315 9.12953 10.278 9.43549 10.551L9.72262 10.8099L9.10599 11.0264C8.15045 11.3653 7.56677 11.5206 6.95485 11.6054C6.47473 11.6713 6.31939 11.6713 5.93812 11.6242C5.55214 11.5771 5.47682 11.5771 5.42034 11.6383C5.37797 11.6807 5.35915 11.7466 5.38268 11.8078C5.42975 11.9584 5.73101 12.0196 6.41824 12.0196C6.90778 12.0149 7.14784 11.9913 7.61855 11.8878C8.75296 11.6336 10.311 11.0593 11.789 10.358L12.3586 10.085L12.6128 10.4851C12.754 10.7063 12.8717 10.904 12.8811 10.9228C12.9046 10.984 12.3633 11.7607 11.8455 12.4103C10.3581 14.279 8.56468 15.6111 6.69125 16.2371C5.07201 16.7784 3.41512 16.689 2.35602 16.0065C1.62642 15.5311 1.20279 14.9474 0.958018 14.0719C0.774441 13.4176 0.859169 12.382 1.17925 11.4124C1.33458 10.9369 1.86649 9.82608 2.15833 9.3742L2.35132 9.07294L2.50194 9.1765C2.58196 9.23298 2.78908 9.34124 2.95853 9.42127Z" fill="white"/>
</svg>
