<svg width="37" height="42" viewBox="0 0 37 42" fill="none" xmlns="http://www.w3.org/2000/svg">
<path d="M18.4706 41.64C14.844 41.64 11.6973 40.8133 9.03063 39.16C6.36396 37.5067 4.31063 35.1333 2.87063 32.04C1.43063 28.9467 0.710625 25.2667 0.710625 21C0.710625 16.7333 1.43063 13.0533 2.87063 9.96C4.31063 6.86667 6.36396 4.49333 9.03063 2.84C11.6973 1.18667 14.844 0.359999 18.4706 0.359999C22.0973 0.359999 25.244 1.18667 27.9106 2.84C30.5773 4.49333 32.6306 6.86667 34.0706 9.96C35.564 13.0533 36.3106 16.7333 36.3106 21C36.3106 25.2667 35.564 28.9467 34.0706 32.04C32.6306 35.1333 30.5773 37.5067 27.9106 39.16C25.244 40.8133 22.0973 41.64 18.4706 41.64ZM18.4706 38.52C22.844 38.52 26.3373 37.0267 28.9506 34.04C31.564 31 32.8706 26.6533 32.8706 21C32.8706 15.3467 31.564 11.0267 28.9506 8.04C26.3373 5 22.844 3.48 18.4706 3.48C14.0973 3.48 10.604 5 7.99063 8.04C5.43063 11.0267 4.15063 15.3467 4.15063 21C4.15063 26.6533 5.43063 31 7.99063 34.04C10.604 37.0267 14.0973 38.52 18.4706 38.52Z" fill="white"/>
</svg>
