<svg width="50" height="50" viewBox="0 0 111 251" fill="none" xmlns="http://www.w3.org/2000/svg">
<path d="M55.4266 202.6C46.3599 202.6 38.4932 200.533 31.8266 196.4C25.1599 192.267 20.0266 186.333 16.4266 178.6C12.8266 170.867 11.0266 161.667 11.0266 151C11.0266 140.333 12.8266 131.133 16.4266 123.4C20.0266 115.667 25.1599 109.733 31.8266 105.6C38.4932 101.467 46.3599 99.4 55.4266 99.4C64.4932 99.4 72.3599 101.467 79.0266 105.6C85.6932 109.733 90.8266 115.667 94.4266 123.4C98.1599 131.133 100.027 140.333 100.027 151C100.027 161.667 98.1599 170.867 94.4266 178.6C90.8266 186.333 85.6932 192.267 79.0266 196.4C72.3599 200.533 64.4932 202.6 55.4266 202.6ZM55.4266 194.8C66.3599 194.8 75.0932 191.067 81.6266 183.6C88.1599 176 91.4266 165.133 91.4266 151C91.4266 136.867 88.1599 126.067 81.6266 118.6C75.0932 111 66.3599 107.2 55.4266 107.2C44.4932 107.2 35.7599 111 29.2266 118.6C22.8266 126.067 19.6266 136.867 19.6266 151C19.6266 165.133 22.8266 176 29.2266 183.6C35.7599 191.067 44.4932 194.8 55.4266 194.8Z" fill="white"/>
<path d="M50.847 126.174C49.5196 126.41 48.4275 126.767 47.3072 127.332C46.507 127.728 46.2058 127.944 45.575 128.575C45.1608 128.998 44.6619 129.601 44.4736 129.93C44.0311 130.702 43.5133 132.265 43.2686 133.621C42.9861 135.137 42.9108 137.961 43.1179 139.514C43.5416 142.724 44.5301 144.711 45.801 144.88L46.2434 144.937L45.6598 146.095C44.6054 148.194 44.2853 149.248 43.8805 151.884C42.8826 158.503 42.9391 162.551 44.0688 165.723C44.7278 167.559 45.6974 168.999 47.2602 170.496C49.2183 172.37 51.506 173.575 53.7465 173.923C54.735 174.083 56.8909 173.979 57.7852 173.744C60.0258 173.142 62.0593 171.908 63.9327 170.016C66.4557 167.455 67.9055 164.565 68.4609 160.922C68.6398 159.745 68.6586 157.665 68.508 156.686C68.2726 155.226 67.5195 152.958 67.0205 152.204C66.8511 151.95 66.804 152.044 67.6607 150.924C67.9525 150.548 68.4986 149.794 68.8657 149.248C69.3741 148.514 69.6188 148.232 69.8448 148.147C70.2778 147.987 70.259 147.977 70.5226 148.495C70.7203 148.891 70.805 148.966 71.0216 148.966C71.417 148.966 73.4128 148.269 73.5257 148.09C73.601 147.968 73.554 147.789 73.328 147.328L73.0268 146.725L73.3563 146.358C73.8176 145.859 73.9305 145.426 73.7799 144.701C73.6293 143.958 73.3845 143.496 72.8479 142.922C72.3019 142.338 71.7841 142.065 71.2098 142.056C70.7862 142.047 70.7674 142.028 70.5697 141.632C70.4661 141.406 70.3814 141.209 70.4002 141.199C70.419 141.18 71.3228 140.973 72.4054 140.729C74.8625 140.192 74.8437 140.201 74.7778 139.806C74.7402 139.561 72.9891 134.609 72.1136 132.275C71.8029 131.465 71.5676 131.371 71.0592 131.851C70.8709 132.03 70.4379 132.425 70.099 132.736C69.7601 133.056 69.1293 133.649 68.6868 134.054C68.2444 134.468 67.5666 135.099 67.1806 135.457C66.7946 135.814 65.9097 136.633 65.2224 137.283C64.5258 137.933 63.8385 138.516 63.6879 138.582C63.2266 138.77 62.5111 139.524 62.2852 140.041C61.9275 140.879 62.1911 141.999 62.8595 142.47C63.4243 142.875 64.4128 142.837 65.4389 142.367C65.6461 142.272 66.1638 142.112 66.5969 142.009L67.3783 141.83L67.5948 142.32C67.7172 142.583 67.9902 143.167 68.2067 143.628C68.6209 144.513 68.6209 144.598 68.1973 144.974C67.9808 145.172 65.4013 146.424 64.0551 146.989L63.3302 147.3L62.5959 146.612C62.1911 146.236 61.4097 145.586 60.8637 145.181L59.8563 144.428L59.9034 143.28C59.9505 142.301 59.9317 142.112 59.7999 141.981C59.7057 141.886 59.6869 141.802 59.7434 141.764C59.7904 141.736 59.8375 141.406 59.8375 141.039C59.8375 140.493 59.8846 140.295 60.0729 139.957C60.2611 139.646 60.3741 139.552 60.553 139.552C60.9766 139.552 61.4285 139.269 61.7862 138.77C62.4547 137.867 62.2758 137.245 60.5906 134.656C58.9243 132.086 58.3971 130.768 58.8961 130.354C59.3103 130.006 59.6022 129.375 59.6022 128.801C59.6022 128.358 59.5457 128.198 59.3197 127.859C58.7078 126.993 57.3145 126.372 55.3658 126.089C54.3114 125.939 51.9202 125.986 50.847 126.174ZM58.7078 133.122C58.9337 133.527 59.3103 134.148 59.5551 134.515C60.4306 135.833 61.1743 137.113 61.2967 137.528C61.4285 137.942 61.4191 137.951 61.1178 138.347C60.8731 138.676 60.7413 138.761 60.4306 138.799C59.894 138.874 59.6398 139.072 59.3291 139.655C59.122 140.032 59.0561 140.286 59.0467 140.691L59.0373 141.227L58.3689 141.34C57.6346 141.453 57.3333 141.661 57.4275 141.981C57.5122 142.225 57.8135 142.348 58.5666 142.423L59.2068 142.498L59.1503 143.261C59.0467 144.57 58.802 145.05 58.0865 145.351C56.8438 145.869 53.4265 145.549 50.5928 144.635C49.5478 144.306 48.2392 143.656 48.2392 143.468C48.2298 143.289 49.1807 141.736 49.4631 141.463C49.6702 141.265 49.962 141.105 50.3104 141.011C51.7884 140.597 52.3627 140.267 52.6921 139.618C52.8804 139.26 52.8898 139.128 52.8428 137.998C52.8145 137.33 52.7486 136.539 52.6921 136.257C52.5509 135.485 52.3909 133.527 52.4474 133.329C52.485 133.225 52.6639 133.112 52.8993 133.047C53.9819 132.774 55.9589 132.049 56.872 131.606L57.9076 131.117L58.1053 131.747C58.2183 132.096 58.4913 132.717 58.7078 133.122ZM71.6335 133.244C71.7182 133.48 72.2548 134.967 72.8197 136.549C73.3939 138.13 73.8646 139.467 73.8646 139.514C73.8646 139.636 65.8343 141.406 65.7967 141.284C65.7779 141.227 65.5331 140.7 65.2507 140.107C64.9682 139.524 64.7329 138.987 64.7329 138.93C64.7329 138.865 65.5519 138.064 66.5498 137.142C67.5383 136.219 68.9128 134.958 69.5812 134.327C71.577 132.453 71.3887 132.557 71.6335 133.244ZM64.554 140.465C64.8364 141.067 65.0718 141.595 65.0906 141.632C65.1471 141.764 64.0645 142.028 63.7067 141.962C63.509 141.934 63.2831 141.811 63.1607 141.679C62.8783 141.35 62.7936 140.691 62.9724 140.333C63.1231 140.051 63.8197 139.363 63.9609 139.363C64.008 139.363 64.2716 139.853 64.554 140.465ZM48.9171 144.843C51.0164 145.831 55.2716 146.603 57.1733 146.339C58.3124 146.189 58.6231 146.066 59.075 145.614L59.4798 145.2L59.781 145.407C60.2611 145.746 61.2591 146.556 61.871 147.102L62.4452 147.62L61.212 148.053C59.3009 148.731 58.1335 149.041 56.9097 149.211C55.9495 149.343 55.6388 149.343 54.8762 149.248C54.1043 149.154 53.9536 149.154 53.8407 149.277C53.7559 149.361 53.7183 149.493 53.7654 149.616C53.8595 149.917 54.462 150.039 55.8365 150.039C56.8156 150.03 57.2957 149.983 58.2371 149.776C60.5059 149.267 63.622 148.119 66.5781 146.716L67.7172 146.17L68.2255 146.97C68.508 147.413 68.7433 147.808 68.7622 147.846C68.8092 147.968 67.7266 149.521 66.691 150.821C63.7162 154.558 60.1294 157.222 56.3825 158.474C53.144 159.557 49.8302 159.378 47.712 158.013C46.2528 157.062 45.4056 155.895 44.916 154.144C44.5489 152.835 44.7183 150.764 45.3585 148.825C45.6692 147.874 46.733 145.652 47.3167 144.748L47.7026 144.146L48.0039 144.353C48.1639 144.466 48.5782 144.682 48.9171 144.843Z" fill="white"/>
</svg>
