<svg width="48" height="48" viewBox="0 0 48 48" fill="none" xmlns="http://www.w3.org/2000/svg">
<circle cx="24" cy="24" r="24" fill="#BA2396" fill-opacity="0.1"/>
<path d="M24 34.75C18.07 34.75 13.25 29.93 13.25 24C13.25 18.07 18.07 13.25 24 13.25C29.93 13.25 34.75 18.07 34.75 24C34.75 29.93 29.93 34.75 24 34.75ZM24 14.75C18.9 14.75 14.75 18.9 14.75 24C14.75 29.1 18.9 33.25 24 33.25C29.1 33.25 33.25 29.1 33.25 24C33.25 18.9 29.1 14.75 24 14.75Z" fill="#F34751"/>
<path d="M20.9901 27.62C18.9901 27.62 17.3701 26 17.3701 24C17.3701 22 18.9901 20.38 20.9901 20.38C21.8701 20.38 22.7101 20.7 23.3801 21.28C23.6901 21.55 23.7201 22.03 23.4501 22.34C23.1801 22.65 22.7001 22.68 22.3901 22.41C22.0001 22.07 21.5101 21.88 20.9901 21.88C19.8201 21.88 18.8701 22.83 18.8701 24C18.8701 25.17 19.8201 26.12 20.9901 26.12C21.5001 26.12 22.0001 25.93 22.3901 25.59C22.7001 25.32 23.1701 25.35 23.4501 25.66C23.7201 25.97 23.6901 26.45 23.3801 26.72C22.7101 27.3 21.8601 27.62 20.9901 27.62Z" fill="#F34751"/>
<path d="M27.9901 27.62C25.9901 27.62 24.3701 26 24.3701 24C24.3701 22 25.9901 20.38 27.9901 20.38C28.8701 20.38 29.7101 20.7 30.3801 21.28C30.6901 21.55 30.7201 22.03 30.4501 22.34C30.1801 22.65 29.7001 22.68 29.3901 22.41C29.0001 22.07 28.5101 21.88 27.9901 21.88C26.8201 21.88 25.8701 22.83 25.8701 24C25.8701 25.17 26.8201 26.12 27.9901 26.12C28.5001 26.12 29.0001 25.93 29.3901 25.59C29.7001 25.32 30.1701 25.35 30.4501 25.66C30.7201 25.97 30.6901 26.45 30.3801 26.72C29.7101 27.3 28.8601 27.62 27.9901 27.62Z" fill="#F34751"/>
</svg>
